<svg width="15" height="15" viewBox="0 0 15 15" fill="none" xmlns="http://www.w3.org/2000/svg">
<path d="M13.0699 14.3766C13.7915 14.3763 14.3767 13.7914 14.3767 13.0698L14.3758 1.3077C14.3758 0.585897 13.7908 0.000900528 13.069 0.000901202L1.30695 -4.03059e-07C0.585331 -4.03059e-07 0.000448308 0.585247 0.000152943 1.3068C0.000152269 2.0286 0.585148 2.61359 1.30695 2.61359L9.91394 2.6145L0.382806 12.1456C-0.127585 12.656 -0.127585 13.4835 0.382806 13.9939C0.893196 14.5043 1.7207 14.5043 2.23109 13.9939L11.7622 4.46278L11.7631 13.0698C11.7631 13.7916 12.3481 14.3766 13.0699 14.3766Z" fill="black"/>
</svg>
