<svg width="16" height="16" viewBox="0 0 16 16" fill="none" xmlns="http://www.w3.org/2000/svg">
<path d="M8.00331 3.83818C5.73189 3.83818 3.89975 5.6417 3.89975 7.87763C3.89975 10.1136 5.73189 11.9171 8.00331 11.9171C10.2747 11.9171 12.1069 10.1136 12.1069 7.87763C12.1069 5.6417 10.2747 3.83818 8.00331 3.83818ZM8.00331 10.5038C6.53546 10.5038 5.33546 9.32607 5.33546 7.87763C5.33546 6.4292 6.53189 5.25146 8.00331 5.25146C9.47474 5.25146 10.6712 6.4292 10.6712 7.87763C10.6712 9.32607 9.47117 10.5038 8.00331 10.5038ZM13.2319 3.67295C13.2319 4.19677 12.8033 4.61513 12.2747 4.61513C11.7426 4.61513 11.3176 4.19326 11.3176 3.67295C11.3176 3.15264 11.7462 2.73076 12.2747 2.73076C12.8033 2.73076 13.2319 3.15264 13.2319 3.67295ZM15.9497 4.6292C15.889 3.36709 15.5962 2.24912 14.6569 1.32803C13.7212 0.406933 12.5855 0.118652 11.3033 0.0553711C9.98188 -0.018457 6.02117 -0.018457 4.69975 0.0553711C3.42118 0.115137 2.28546 0.403418 1.34618 1.32451C0.406892 2.2456 0.117606 3.36357 0.0533203 4.62568C-0.0216797 5.92646 -0.0216797 9.82529 0.0533203 11.1261C0.114035 12.3882 0.406892 13.5061 1.34618 14.4272C2.28546 15.3483 3.4176 15.6366 4.69975 15.6999C6.02117 15.7737 9.98188 15.7737 11.3033 15.6999C12.5855 15.6401 13.7212 15.3518 14.6569 14.4272C15.5926 13.5061 15.8855 12.3882 15.9497 11.1261C16.0247 9.82529 16.0247 5.92998 15.9497 4.6292ZM14.2426 12.5218C13.964 13.2108 13.4247 13.7417 12.7212 14.0194C11.6676 14.4308 9.1676 14.3358 8.00331 14.3358C6.83903 14.3358 4.33546 14.4272 3.28546 14.0194C2.58546 13.7452 2.04618 13.2143 1.76403 12.5218C1.34618 11.4847 1.44261 9.02373 1.44261 7.87763C1.44261 6.73154 1.34975 4.26709 1.76403 3.23349C2.0426 2.54443 2.58189 2.01357 3.28546 1.73584C4.33903 1.32451 6.83903 1.41943 8.00331 1.41943C9.1676 1.41943 11.6712 1.32803 12.7212 1.73584C13.4212 2.01006 13.9605 2.54092 14.2426 3.23349C14.6605 4.2706 14.564 6.73154 14.564 7.87763C14.564 9.02373 14.6605 11.4882 14.2426 12.5218Z" fill="#192031"/>
</svg>
