<svg width="138" height="136" viewBox="0 0 138 136" fill="none" xmlns="http://www.w3.org/2000/svg">
<path d="M63.0471 132.048C62.7353 133.941 61.0154 134.938 58.7434 134.564C56.7082 134.229 55.5542 132.872 55.6924 130.95L56.8442 131.14C56.7599 132.439 57.5082 133.307 58.9281 133.541C60.5216 133.804 61.698 133.155 61.9085 131.877C62.0722 130.883 61.5924 130.156 60.4585 129.661L58.5958 128.868C56.8989 128.151 56.1501 126.991 56.4022 125.46C56.7244 123.504 58.4443 122.507 60.7793 122.891C62.9724 123.253 64.2657 124.649 64.1037 126.518L62.9362 126.326C63.068 125.132 62.154 124.187 60.6078 123.933C58.9512 123.66 57.7616 124.29 57.5485 125.584C57.3822 126.594 57.8411 127.35 59.0092 127.834L60.8403 128.622C62.5372 129.339 63.3017 130.502 63.0471 132.048Z" fill="white"/>
<path d="M48.7048 124.101C47.7422 126.332 45.7181 127.27 43.6479 126.377C42.0035 125.668 41.2112 124.194 41.5655 122.606L42.5786 123.043C42.4185 124.141 43.0358 125.051 44.0195 125.475C45.4584 126.096 46.9464 125.432 47.7 123.685C48.4283 121.996 47.9763 120.46 46.5374 119.84C45.4803 119.384 44.3754 119.604 43.7038 120.394L42.676 119.95C43.6407 118.642 45.315 118.233 46.9301 118.929C48.9415 119.797 49.6674 121.869 48.7048 124.101Z" fill="white"/>
<path d="M29.7411 118.175L30.3152 117.367L30.8105 117.718C31.9708 118.542 33.2694 118.288 34.1212 117.089L36.6766 113.491L37.5762 114.129L33.0949 120.439L32.2475 119.837L32.8767 118.813C32.1476 119.315 31.1679 119.286 30.2815 118.657C30.0859 118.518 29.9257 118.384 29.7411 118.175Z" fill="white"/>
<path d="M26.6911 110.507C24.9347 112.093 22.5504 112.006 21.0286 110.321C19.5069 108.635 19.6622 106.255 21.4185 104.668C23.163 103.093 25.5473 103.181 27.0691 104.866C28.5908 106.551 28.4355 108.932 26.6911 110.507ZM25.929 109.687C27.2819 108.465 27.4478 106.764 26.3333 105.53C25.2295 104.308 23.5097 104.288 22.1568 105.51C20.8277 106.71 20.6606 108.434 21.7644 109.656C22.8789 110.89 24.5999 110.887 25.929 109.687Z" fill="white"/>
<path d="M19.5555 94.9845L20.1157 95.935L10.0735 101.854L9.51329 100.903L19.5555 94.9845Z" fill="white"/>
<path d="M15.7308 87.0994L16.1412 88.1235L5.32098 92.4594L4.91059 91.4353L15.7308 87.0994Z" fill="white"/>
<path d="M11.8917 67.2752C11.9163 69.5296 10.204 70.8756 7.88566 70.9009C5.55128 70.9265 3.77798 69.6186 3.75281 67.3162C3.73882 66.0371 4.28724 65.0077 5.40052 64.4518L0.01226 64.5108L0.000196213 63.4075L11.6561 63.2801L11.6666 64.2394L10.0849 64.3686C11.29 64.8991 11.8775 65.9801 11.8917 67.2752ZM10.8823 67.0943C10.8638 65.3995 9.5738 64.4222 7.78304 64.4418C6.00828 64.4612 4.72401 65.4667 4.74255 67.1615C4.7609 68.8403 6.06667 69.8015 7.84144 69.7821C9.6322 69.7625 10.9006 68.7732 10.8823 67.0943Z" fill="white"/>
<path d="M8.56129 55.3223C6.26345 54.7564 4.99983 52.7325 5.54279 50.5278C6.08575 48.3232 8.14469 47.1176 10.4425 47.6835C12.7248 48.2456 13.9885 50.2694 13.4455 52.4741C12.9025 54.6788 10.8436 55.8843 8.56129 55.3223ZM8.81342 54.2316C10.5834 54.6675 12.0852 53.8517 12.4829 52.237C12.8767 50.6378 11.9293 49.2024 10.1593 48.7665C8.42044 48.3382 6.89924 49.1657 6.5054 50.7649C6.10774 52.3796 7.07452 53.8034 8.81342 54.2316Z" fill="white"/>
<path d="M17.5076 40.3292L9.50549 38.7783L10.0604 37.7879L14.8762 38.7449C15.4085 38.8415 15.9392 38.9739 16.5614 39.1392C16.0799 38.7228 15.5214 38.1166 15.3373 37.9218L12.0143 34.3005L12.5692 33.3101L17.385 34.267C17.818 34.3447 18.4977 34.5056 19.0702 34.6614C18.5904 34.2093 18.4386 34.0876 17.8461 33.444L14.5231 29.8227L15.0859 28.8183L20.5557 34.8888L20.0321 35.8234L15.0098 34.8424C14.4138 34.7285 13.9328 34.6056 13.4814 34.4626C13.7894 34.7635 14.1314 35.1017 14.5878 35.5957L18.0469 39.3666L17.5076 40.3292Z" fill="white"/>
<path d="M26.5244 27.0599L25.7552 27.8508L20.2074 22.4549L20.8763 21.7672L21.9506 22.589C21.5967 21.531 21.909 20.4072 22.6894 19.6049C24.1722 18.0804 25.6908 18.3307 27.0893 19.6908L30.4821 22.9908L29.7129 23.7817L26.4919 20.6489C25.1967 19.3891 24.1696 19.5278 23.2777 20.4448C22.174 21.5796 22.375 23.0241 23.6244 24.2393L26.5244 27.0599Z" fill="white"/>
<path d="M40.2811 7.04798L41.3571 6.5557L40.7317 5.1889C40.0066 3.60401 40.5996 2.59417 41.6756 2.10189C41.9228 1.9888 42.2203 1.87029 42.4729 1.80747L42.8654 2.66535L42.2692 2.9381C41.3823 3.3439 41.3558 3.90109 41.735 4.72989L42.3604 6.09668L44.018 5.3383L44.4038 6.18164L42.7462 6.94002L45.5801 13.1342L44.5768 13.5932L41.7429 7.39903L40.6669 7.89131L40.2811 7.04798Z" fill="white"/>
<path d="M51.9064 6.47048C51.3929 4.16038 52.6449 2.12936 54.8614 1.63663C57.0778 1.14389 59.0724 2.45316 59.586 4.76327C60.0961 7.05776 58.844 9.08878 56.6276 9.58151C54.4111 10.0742 52.4165 8.76498 51.9064 6.47048ZM52.9956 6.21198C53.3912 7.99138 54.7891 8.97464 56.4124 8.61377C58.0202 8.25636 58.8855 6.76996 58.4899 4.99055C58.1013 3.24237 56.6842 2.24697 55.0765 2.60437C53.4532 2.96525 52.607 4.46379 52.9956 6.21198Z" fill="white"/>
<path d="M71.7989 0.0800114V1.07138H71.1913C69.7682 1.07138 68.8568 2.03077 68.8568 3.50184V7.91505H67.7535V0.17595H68.7928L68.8728 1.37519C69.1766 0.543717 69.9921 6.10352e-05 71.0794 6.10352e-05C71.3192 6.10352e-05 71.5271 0.0160518 71.7989 0.0800114Z" fill="white"/>
<path d="M89.4065 11.3114L90.0951 3.18951L91.139 3.63563L90.7012 8.526C90.6618 9.06563 90.5868 9.6074 90.4888 10.2437C90.8515 9.7205 91.3946 9.10055 91.5687 8.89671L94.8149 5.20647L95.8589 5.65259L95.421 10.5429C95.39 10.9818 95.3025 11.6747 95.2086 12.2606C95.607 11.7353 95.7118 11.5714 96.2885 10.9137L99.5348 7.22342L100.593 7.67582L95.1409 13.7619L94.1558 13.3409L94.5956 8.24268C94.6453 7.63795 94.7162 7.14658 94.8102 6.68247C94.5439 7.02078 94.2441 7.39692 93.8016 7.90338L90.4211 11.7449L89.4065 11.3114Z" fill="white"/>
<path d="M104.689 14.7855C106.165 12.9351 108.531 12.634 110.307 14.0494C112.082 15.4649 112.316 17.8393 110.841 19.6897C109.375 21.5276 107.008 21.8287 105.233 20.4132C103.458 18.9978 103.224 16.6233 104.689 14.7855ZM105.574 15.4707C104.438 16.896 104.551 18.6014 105.851 19.6381C107.139 20.6648 108.839 20.4047 109.975 18.9794C111.092 17.5792 110.976 15.8513 109.689 14.8246C108.388 13.7879 106.691 14.0704 105.574 15.4707Z" fill="white"/>
<path d="M122.154 26.2531L121.382 26.8756L121.001 26.4028C120.107 25.2953 118.788 25.1885 117.643 26.1123L114.209 28.8838L113.516 28.0252L119.538 23.1651L120.191 23.9739L119.308 24.7893C120.146 24.5035 121.081 24.7967 121.764 25.6429C121.915 25.8296 122.033 26.0014 122.154 26.2531Z" fill="white"/>
<path d="M120.278 37.7358L119.771 36.7557L130.126 31.4034L130.633 32.3836L123.602 36.0178L128.915 37.5914L129.554 38.8273L125.447 37.6022L122.686 42.3949L122.099 41.2585L124.405 37.2943L122.337 36.6712L120.278 37.7358Z" fill="white"/>
<path d="M127.187 59.5998L127.062 58.5197L133.828 57.7363L133.65 56.1956L134.571 56.0889L134.749 57.6297L137.18 57.3483L137.305 58.4284L134.874 58.7097L135.053 60.2505L134.132 60.3571L133.953 58.8164L127.187 59.5998Z" fill="white"/>
<path d="M131.529 67.3328C133.885 67.5574 135.43 69.3753 135.214 71.6356C134.999 73.8959 133.138 75.3889 130.782 75.1643C128.442 74.9412 126.897 73.1233 127.112 70.863C127.328 68.6027 129.189 67.1097 131.529 67.3328ZM131.438 68.4486C129.624 68.2755 128.257 69.3017 128.099 70.9571C127.943 72.5966 129.09 73.8785 130.904 74.0516C132.687 74.2216 134.071 73.181 134.227 71.5415C134.385 69.886 133.221 68.6185 131.438 68.4486Z" fill="white"/>
<path d="M129.398 82.8421C131.383 83.5609 132.559 85.4323 131.786 87.5671C131.328 88.83 130.393 89.5799 129.157 89.6593L130.577 90.2927L130.251 91.1948L123.2 88.6411C121.035 87.857 120.122 85.9621 120.896 83.8272C121.571 81.963 123.097 81.0361 124.959 81.3875L124.584 82.4249C123.329 82.2257 122.311 82.8773 121.837 84.1853C121.298 85.6737 121.946 87.0307 123.465 87.5807L125.194 88.2068C124.351 87.3404 124.114 86.1154 124.566 84.8675C125.318 82.7928 127.414 82.1234 129.398 82.8421ZM129.038 83.8849C127.549 83.3459 125.999 83.8219 125.444 85.3554C124.872 86.934 125.677 88.28 127.241 88.8462C128.789 89.4071 130.259 88.9188 130.836 87.3252C131.402 85.7616 130.511 84.4185 129.038 83.8849Z" fill="white"/>
<path d="M117.579 97.9424C118.845 96.0576 121.046 95.706 123.064 97.0611C125.068 98.4074 125.61 100.582 124.38 102.414C123.212 104.153 121.184 104.505 119.366 103.284L118.914 102.981L122.347 97.8702C120.736 96.8845 119.281 97.1012 118.353 98.4817C117.649 99.5303 117.646 100.51 118.335 101.32L117.746 102.196C116.624 100.941 116.563 99.4556 117.579 97.9424ZM123.597 101.888C124.408 100.68 124.147 99.3488 122.993 98.3425L120.193 102.51C121.428 103.34 122.786 103.096 123.597 101.888Z" fill="white"/>
<path d="M109.924 107.419L110.699 106.657L115.477 111.512L116.582 110.424L117.233 111.085L116.128 112.173L117.844 113.916L117.069 114.679L115.353 112.935L114.247 114.023L113.597 113.362L114.702 112.274L109.924 107.419Z" fill="white"/>
<path d="M103.014 113.221L103.939 112.621L110.275 122.387L109.349 122.987L106.486 118.574C106.575 119.622 106.123 120.658 105.036 121.363C103.333 122.468 101.88 121.905 100.819 120.268L98.2429 116.297L99.1685 115.697L101.614 119.466C102.597 120.982 103.656 121.058 104.662 120.405C106.057 119.5 106.112 117.997 105.302 116.749L103.014 113.221Z" fill="white"/>
<path d="M88.9419 120.23C91.0825 119.473 93.0584 120.504 93.8687 122.795C94.6737 125.072 93.8111 127.141 91.7307 127.876C89.7559 128.575 87.9185 127.647 87.1881 125.582L87.0069 125.069L92.8107 123.017C92.1063 121.265 90.8091 120.57 89.2413 121.125C88.0504 121.546 87.4628 122.33 87.5327 123.391L86.5377 123.743C86.3859 122.066 87.2233 120.837 88.9419 120.23ZM91.4162 126.987C92.788 126.502 93.3727 125.277 93.0471 123.781L88.3136 125.455C88.8094 126.857 90.0444 127.472 91.4162 126.987Z" fill="white"/>
<path d="M75.917 131.326L75.789 130.343L76.3915 130.265C77.8026 130.081 78.5825 129.012 78.3924 127.553L77.8221 123.177L78.9162 123.034L79.9162 130.708L78.8855 130.843L78.6513 129.664C78.4575 130.527 77.7191 131.172 76.6409 131.312C76.4031 131.343 76.1949 131.354 75.917 131.326Z" fill="white"/>
<path d="M76.7171 62.0104C76.7171 60.1552 75.9796 58.3752 74.6677 57.0633C73.356 55.7517 71.5767 55.015 69.7216 55.015C67.8664 55.015 66.0864 55.7515 64.7745 57.0633C63.4627 58.3752 62.7262 60.1552 62.7262 62.0104V70.0044C62.7262 71.8597 63.4627 73.6397 64.7745 74.9515C66.0864 76.2634 67.8664 76.9999 69.7216 76.9999C71.5767 76.9998 73.356 76.2632 74.6677 74.9515C75.9796 73.6396 76.7171 71.8597 76.7171 70.0044V62.0104ZM78.7151 70.0044C78.7151 72.3898 77.7675 74.6778 76.0808 76.3646C74.3942 78.0511 72.1068 78.9988 69.7216 78.9989C67.3363 78.9989 65.0482 78.0513 63.3615 76.3646C61.6748 74.6779 60.7272 72.3898 60.7272 70.0044V62.0104C60.7272 59.6251 61.6748 57.337 63.3615 55.6503C65.0482 53.9636 67.3363 53.016 69.7216 53.016C72.1068 53.0161 74.3942 53.9638 76.0808 55.6503C77.7675 57.337 78.7151 59.6251 78.7151 62.0104V70.0044Z" fill="white"/>
<path d="M68.724 64.6739V59.3452C68.724 58.7933 69.1716 58.3457 69.7235 58.3457C70.2754 58.3457 70.723 58.7933 70.723 59.3452V64.6739C70.723 65.2258 70.2754 65.6734 69.7235 65.6734C69.1716 65.6734 68.724 65.2258 68.724 64.6739Z" fill="white"/>
</svg>
